Coordinates
version=1
nRows=8
nColumns=40
inDegrees=yes

Units are S.I. units (second, meters, Newtons, ...)
Angles are in degrees.

endheader
time	pelvis_tilt	pelvis_list	pelvis_rotation	pelvis_tx	pelvis_ty	pelvis_tz	hip_flexion_r	hip_adduction_r	hip_rotation_r	knee_angle_r	knee_angle_r_beta	ankle_angle_r	subtalar_angle_r	mtp_angle_r	hip_flexion_l	hip_adduction_l	hip_rotation_l	knee_angle_l	knee_angle_l_beta	ankle_angle_l	subtalar_angle_l	mtp_angle_l	lumbar_extension	lumbar_bending	lumbar_rotation	arm_flex_r	arm_add_r	arm_rot_r	elbow_flex_r	pro_sup_r	wrist_flex_r	wrist_dev_r	arm_flex_l	arm_add_l	arm_rot_l	elbow_flex_l	pro_sup_l	wrist_flex_l	wrist_dev_l
     42.60500000	     -5.92431386	     -3.78218421	      8.09988432	      1.03869561	      0.91971476	      0.48383666	      1.26185062	      0.99247733	    -12.33493535	     19.12545041	     19.12545041	     18.85445756	     -0.83389177	     -2.87616949	     27.32044805	     -3.99549895	      4.98027951	     25.71816092	     25.71816092	      7.38091927	    -10.70025986	      2.80845861	     -9.09835317	      3.97273387	      4.21423866	     50.55077025	    -11.66636290	      6.64765023	    100.60627354	     44.35167967	      0.00000000	      0.00000000	    -12.85561916	    -12.78929064	     17.02553579	     39.52258767	     44.07322829	      0.00000000	      0.00000000
     42.62571429	     -6.05620371	     -3.80484229	      7.58892032	      1.04080288	      0.92070661	      0.48034651	      1.00330926	      0.67160475	    -12.32902417	     19.11107907	     19.11107907	     18.36795911	     -0.19992867	     -3.30076094	     26.85445629	     -3.94302632	      4.70194267	     25.62807366	     25.62807366	      7.69754187	    -11.07736727	      3.13939767	     -9.01474044	      3.98347589	      4.39035121	     49.67944029	    -11.97408695	      6.45432719	     97.91402820	     44.45279577	      0.00000000	      0.00000000	    -12.26888382	    -12.86633926	     16.44415378	     40.22615189	     44.18565385	      0.00000000	      0.00000000
     42.64642857	     -6.20916196	     -3.82229615	      7.11537495	      1.04279181	      0.92164578	      0.47677273	      0.74233602	      0.35179179	    -12.27741975	     18.97845900	     18.97845900	     17.45363894	      0.26566422	     -4.84027442	     26.46398431	     -3.85719227	      4.43426087	     25.63561036	     25.63561036	      8.23411699	    -11.30357904	      4.00364064	     -8.96623315	      4.05919603	      3.55698958	     49.20858220	    -11.20151864	      6.78614992	     93.77372169	     44.62609918	      0.00000000	      0.00000000	    -12.41675410	    -12.58351565	     13.93544304	     41.31327905	     44.63156689	      0.00000000	      0.00000000
     42.66714286	     -6.31950856	     -3.85445881	      6.61863364	      1.04473445	      0.92263829	      0.47327801	      0.47540009	      0.04986987	    -12.20969715	     18.94444368	     18.94444368	     17.03461340	      0.88357213	     -4.96999558	     25.97340811	     -3.80078256	      4.15353341	     25.50603703	     25.50603703	      8.45777041	    -11.64759597	      4.14949589	     -8.97369408	      4.12519451	      3.98523247	     47.72736164	    -12.01295679	      6.42139919	     91.19315456	     44.72090594	      0.00000000	      0.00000000	    -11.38871620	    -12.63463340	     13.45153202	     41.77339682	     44.71821436	      0.00000000	      0.00000000
     42.68785714	     -6.42229424	     -3.90560972	      6.15706199	      1.04657481	      0.92344453	      0.46978200	      0.24116963	     -0.22529936	    -12.06749662	     18.97007474	     18.97007474	     16.68685778	      1.34935825	     -5.04970559	     25.56454005	     -3.74654820	      3.88260094	     25.51292012	     25.51292012	      8.71050384	    -11.98761689	      4.22135228	     -9.05911639	      4.25507645	      4.05031461	     45.88650192	    -12.39012801	      6.31683413	     89.06641572	     44.78764870	      0.00000000	      0.00000000	    -10.48100834	    -12.68489325	     13.13185155	     42.14477769	     44.77361334	      0.00000000	      0.00000000
     42.70857143	     -6.52472887	     -3.89546371	      5.66913954	      1.04823143	      0.92418930	      0.46623149	     -0.01274114	     -0.64010757	    -12.21540051	     18.90372731	     18.90372731	     15.91336312	      2.24117486	     -6.56251290	     25.16608186	     -3.59091555	      3.69761182	     25.55519792	     25.55519792	      9.28605850	    -12.43947440	      5.32465309	     -8.96470374	      4.29063775	      3.10927598	     45.62886439	    -11.34213837	      5.84947587	     81.55510438	     45.07435557	      0.00000000	      0.00000000	    -10.16655920	    -11.99864364	      9.34024829	     42.66699205	     45.34707838	      0.00000000	      0.00000000
     42.72928571	     -6.62622406	     -3.92047638	      5.18786765	      1.04978706	      0.92469134	      0.46274524	     -0.13389858	     -1.00798878	    -12.15355586	     19.09927142	     19.09927142	     15.62420493	      2.90707790	     -6.82768460	     24.81391180	     -3.46985922	      3.52792731	     25.63314397	     25.63314397	      9.58827470	    -12.97650915	      5.57925485	     -8.99479051	      4.38523565	      3.20122378	     43.96573940	    -11.50359399	      4.93436078	     77.02944461	     45.25022592	      0.00000000	      0.00000000	     -8.87538985	    -11.92831753	      8.88783546	     42.73845012	     45.44405501	      0.00000000	      0.00000000
     42.75000000	     -6.70864103	     -3.93466372	      4.70829116	      1.05125962	      0.92495013	      0.45924448	     -0.15377198	     -1.40189710	    -11.96850688	     19.50013264	     19.50013264	     15.32197982	      3.35627091	     -7.32569943	     24.52530766	     -3.32815192	      3.36776333	     25.86542018	     25.86542018	     10.03966159	    -13.51351376	      5.95962211	     -9.05489886	      4.49386736	      3.14182634	     42.38309272	    -11.50469944	      4.11822809	     71.83427492	     45.44063682	      0.00000000	      0.00000000	     -7.61146984	    -11.84081612	      8.28183166	     42.99207112	     45.55644036	      0.00000000	      0.00000000
